<?xml version="1.0" standalone="no"?><!DOCTYPE svg PUBLIC "-//W3C//DTD SVG 1.1//EN" "http://www.w3.org/Graphics/SVG/1.1/DTD/svg11.dtd"><svg t="1619589459268" class="icon" viewBox="0 0 1025 1024" version="1.1" xmlns="http://www.w3.org/2000/svg" p-id="1183" xmlns:xlink="http://www.w3.org/1999/xlink" width="200.1953125" height="200"><defs><style type="text/css"></style></defs><path d="M113.777778 568.888889h284.444444a56.888889 56.888889 0 0 1 56.888889 56.888889v284.444444a56.888889 56.888889 0 0 1-56.888889 56.888889H113.777778a56.888889 56.888889 0 0 1-56.888889-56.888889v-284.444444a56.888889 56.888889 0 0 1 56.888889-56.888889z m512 0h284.444444a56.888889 56.888889 0 0 1 56.888889 56.888889v284.444444a56.888889 56.888889 0 0 1-56.888889 56.888889h-284.444444a56.888889 56.888889 0 0 1-56.888889-56.888889v-284.444444a56.888889 56.888889 0 0 1 56.888889-56.888889zM113.777778 56.888889h284.444444a56.888889 56.888889 0 0 1 56.888889 56.888889v284.444444a56.888889 56.888889 0 0 1-56.888889 56.888889H113.777778a56.888889 56.888889 0 0 1-56.888889-56.888889V113.777778a56.888889 56.888889 0 0 1 56.888889-56.888889zM808.220444 14.620444l201.102223 201.159112a56.888889 56.888889 0 0 1 0 80.440888l-201.102223 201.159112a56.888889 56.888889 0 0 1-80.440888 0L526.620444 296.220444a56.888889 56.888889 0 0 1 0-80.440888L727.779556 14.620444a56.888889 56.888889 0 0 1 80.440888 0z" fill="#CACED3" p-id="1184"></path></svg>